<?xml version="1.0" encoding="UTF-8"?>
<!DOCTYPE svg PUBLIC "-//W3C//DTD SVG 1.1//EN" "http://www.w3.org/Graphics/SVG/1.1/DTD/svg11.dtd">
<svg xmlns="http://www.w3.org/2000/svg" version="1.1" width="529px" height="529px" style="shape-rendering:geometricPrecision; text-rendering:geometricPrecision; image-rendering:optimizeQuality; fill-rule:evenodd; clip-rule:evenodd" xmlns:xlink="http://www.w3.org/1999/xlink">
<g><path style="opacity:0.996" fill="#fefefe" d="M -0.5,-0.5 C 175.833,-0.5 352.167,-0.5 528.5,-0.5C 528.5,175.833 528.5,352.167 528.5,528.5C 352.167,528.5 175.833,528.5 -0.5,528.5C -0.5,352.167 -0.5,175.833 -0.5,-0.5 Z"/></g>
<g><path style="opacity:1" fill="#a8ed81" d="M 206.5,54.5 C 210.514,54.3345 214.514,54.5012 218.5,55C 215.964,55.1862 213.631,55.6862 211.5,56.5C 210.167,56.5 208.833,56.5 207.5,56.5C 202.653,55.3814 197.653,55.3814 192.5,56.5C 193.263,55.7321 194.263,55.2321 195.5,55C 199.152,54.5014 202.818,54.3347 206.5,54.5 Z"/></g>
<g><path style="opacity:1" fill="#b7ec98" d="M 206.5,54.5 C 214.744,53.346 223.077,53.6794 231.5,55.5C 225.021,56.4907 218.354,56.824 211.5,56.5C 213.631,55.6862 215.964,55.1862 218.5,55C 214.514,54.5012 210.514,54.3345 206.5,54.5 Z"/></g>
<g><path style="opacity:1" fill="#e2f8d2" d="M 231.5,55.5 C 233.565,55.5172 235.565,55.8505 237.5,56.5C 227.347,57.4942 217.014,57.8276 206.5,57.5C 206.5,56.8333 206.833,56.5 207.5,56.5C 208.833,56.5 210.167,56.5 211.5,56.5C 218.354,56.824 225.021,56.4907 231.5,55.5 Z"/></g>
<g><path style="opacity:1" fill="#b7f491" d="M 187.5,57.5 C 183.498,59.6098 179.165,60.9431 174.5,61.5C 178.502,59.3902 182.835,58.0569 187.5,57.5 Z"/></g>
<g><path style="opacity:1" fill="#dffbd0" d="M 233.5,59.5 C 234.124,59.9169 234.457,60.5836 234.5,61.5C 233.199,66.4114 231.532,71.0781 229.5,75.5C 230.627,70.1177 231.961,64.7843 233.5,59.5 Z"/></g>
<g><path style="opacity:1" fill="#bcf79a" d="M 240.5,64.5 C 240.834,67.491 239.834,69.8243 237.5,71.5C 237.935,68.8427 238.935,66.5093 240.5,64.5 Z"/></g>
<g><path style="opacity:1" fill="#84eb50" d="M 207.5,59.5 C 216.167,59.5 224.833,59.5 233.5,59.5C 231.961,64.7843 230.627,70.1177 229.5,75.5C 228.559,77.0495 227.893,78.7162 227.5,80.5C 224.783,81.811 221.95,82.811 219,83.5C 215.333,83.1667 211.667,82.8333 208,82.5C 205.915,84.3053 203.748,84.972 201.5,84.5C 203.968,76.2935 205.968,67.9602 207.5,59.5 Z"/></g>
<g><path style="opacity:1" fill="#99f55d" d="M 244.5,58.5 C 262.592,65.0534 278.259,75.3867 291.5,89.5C 295.669,95.1663 299.335,101.166 302.5,107.5C 302.052,109.465 301.052,109.798 299.5,108.5C 299.709,107.914 300.043,107.414 300.5,107C 298.722,106.296 296.888,105.796 295,105.5C 288.444,105.384 282.111,105.718 276,106.5C 274.876,103.158 273.376,102.825 271.5,105.5C 261.736,94.0888 249.736,85.7555 235.5,80.5C 236.774,78.0075 237.44,75.3408 237.5,72.5C 237.5,72.1667 237.5,71.8333 237.5,71.5C 239.834,69.8243 240.834,67.491 240.5,64.5C 240.581,61.4866 241.914,59.4866 244.5,58.5 Z"/></g>
<g><path style="opacity:1" fill="#99f55c" d="M 207.5,56.5 C 206.833,56.5 206.5,56.8333 206.5,57.5C 206.5,58.1667 206.5,58.8333 206.5,59.5C 203.861,65.7215 201.195,72.0549 198.5,78.5C 196.556,79.8007 194.556,80.8007 192.5,81.5C 174.696,86.982 161.029,97.6487 151.5,113.5C 147.478,118.876 144.478,124.876 142.5,131.5C 141.776,129.782 141.109,127.948 140.5,126C 136.745,123.286 134.745,124.119 134.5,128.5C 129.392,128.57 124.392,127.903 119.5,126.5C 118.795,123.911 118.795,121.244 119.5,118.5C 125.685,103.632 134.685,90.6321 146.5,79.5C 154.499,71.4959 163.832,65.4959 174.5,61.5C 179.165,60.9431 183.498,59.6098 187.5,57.5C 188.919,56.5489 190.585,56.2155 192.5,56.5C 197.653,55.3814 202.653,55.3814 207.5,56.5 Z"/></g>
<g><path style="opacity:1" fill="#b3ef90" d="M 237.5,72.5 C 237.44,75.3408 236.774,78.0075 235.5,80.5C 235.167,80.5 234.833,80.5 234.5,80.5C 235.129,77.6027 236.129,74.936 237.5,72.5 Z"/></g>
<g><path style="opacity:1" fill="#4fca2a" d="M 206.5,59.5 C 206.833,59.5 207.167,59.5 207.5,59.5C 205.968,67.9602 203.968,76.2935 201.5,84.5C 200.203,86.3713 199.203,88.3713 198.5,90.5C 198.5,88.5 198.5,86.5 198.5,84.5C 196.833,84.5 195.167,84.5 193.5,84.5C 193.737,83.209 193.404,82.209 192.5,81.5C 194.556,80.8007 196.556,79.8007 198.5,78.5C 201.195,72.0549 203.861,65.7215 206.5,59.5 Z"/></g>
<g><path style="opacity:1" fill="#fbfdfb" d="M 237.5,56.5 C 240.228,56.1706 242.562,56.8372 244.5,58.5C 241.914,59.4866 240.581,61.4866 240.5,64.5C 238.935,66.5093 237.935,68.8427 237.5,71.5C 237.5,71.8333 237.5,72.1667 237.5,72.5C 236.129,74.936 235.129,77.6027 234.5,80.5C 233.387,81.9464 233.22,83.6131 234,85.5C 252.079,93.0794 265.912,105.413 275.5,122.5C 286.075,144.963 284.742,166.63 271.5,187.5C 254.739,209.542 232.405,219.709 204.5,218C 176.228,212.557 157.228,196.39 147.5,169.5C 147.5,169.167 147.5,168.833 147.5,168.5C 147.59,165.848 146.924,163.515 145.5,161.5C 145.175,153.981 145.508,146.648 146.5,139.5C 147.924,137.485 148.59,135.152 148.5,132.5C 150.909,125.082 154.242,118.082 158.5,111.5C 168.11,99.6974 180.11,91.3641 194.5,86.5C 195.492,86.3284 196.158,86.6618 196.5,87.5C 196.5,88.1667 196.5,88.8333 196.5,89.5C 195.069,90.7804 194.402,92.4471 194.5,94.5C 189.258,108.225 184.592,122.225 180.5,136.5C 174.384,153.274 168.718,170.274 163.5,187.5C 162.596,188.209 162.263,189.209 162.5,190.5C 189.833,190.5 217.167,190.5 244.5,190.5C 243.488,194.516 242.488,198.516 241.5,202.5C 242.791,202.737 243.791,202.404 244.5,201.5C 254.102,194.572 263.435,187.238 272.5,179.5C 271.867,177.214 270.534,175.548 268.5,174.5C 266.312,170.793 263.645,167.46 260.5,164.5C 255.843,158.511 250.843,152.844 245.5,147.5C 244.432,146.566 243.099,146.232 241.5,146.5C 241.724,150.179 242.058,153.846 242.5,157.5C 242.5,159.167 242.5,160.833 242.5,162.5C 228.5,162.5 214.5,162.5 200.5,162.5C 200.971,160.421 201.637,158.421 202.5,156.5C 205.698,147.574 208.698,138.574 211.5,129.5C 214.279,122.745 216.613,115.745 218.5,108.5C 220.625,103.673 222.292,98.6726 223.5,93.5C 225.111,89.2719 226.444,84.9386 227.5,80.5C 227.893,78.7162 228.559,77.0495 229.5,75.5C 231.532,71.0781 233.199,66.4114 234.5,61.5C 234.457,60.5836 234.124,59.9169 233.5,59.5C 224.833,59.5 216.167,59.5 207.5,59.5C 207.167,59.5 206.833,59.5 206.5,59.5C 206.5,58.8333 206.5,58.1667 206.5,57.5C 217.014,57.8276 227.347,57.4942 237.5,56.5 Z"/></g>
<g><path style="opacity:1" fill="#67de46" d="M 227.5,80.5 C 226.444,84.9386 225.111,89.2719 223.5,93.5C 218.24,93.2578 212.906,93.9245 207.5,95.5C 206.808,94.9747 206.308,94.3081 206,93.5C 203.293,96.0589 200.793,96.0589 198.5,93.5C 198.5,92.5 198.5,91.5 198.5,90.5C 199.203,88.3713 200.203,86.3713 201.5,84.5C 203.748,84.972 205.915,84.3053 208,82.5C 211.667,82.8333 215.333,83.1667 219,83.5C 221.95,82.811 224.783,81.811 227.5,80.5 Z"/></g>
<g><path style="opacity:1" fill="#43bc2e" d="M 192.5,81.5 C 193.404,82.209 193.737,83.209 193.5,84.5C 195.167,84.5 196.833,84.5 198.5,84.5C 198.5,86.5 198.5,88.5 198.5,90.5C 198.5,91.5 198.5,92.5 198.5,93.5C 197.131,95.6915 196.131,98.0248 195.5,100.5C 195.552,96.8019 195.886,93.1352 196.5,89.5C 196.5,88.8333 196.5,88.1667 196.5,87.5C 197.885,86.6977 197.718,86.0311 196,85.5C 195.235,85.5699 194.735,85.9033 194.5,86.5C 180.11,91.3641 168.11,99.6974 158.5,111.5C 156.071,111.884 153.737,112.551 151.5,113.5C 161.029,97.6487 174.696,86.982 192.5,81.5 Z"/></g>
<g><path style="opacity:1" fill="#9ad88b" d="M 194.5,86.5 C 194.735,85.9033 195.235,85.5699 196,85.5C 197.718,86.0311 197.885,86.6977 196.5,87.5C 196.158,86.6618 195.492,86.3284 194.5,86.5 Z"/></g>
<g><path style="opacity:1" fill="#52d345" d="M 223.5,93.5 C 222.292,98.6726 220.625,103.673 218.5,108.5C 215.214,107.793 211.881,107.46 208.5,107.5C 208.5,108.5 208.5,109.5 208.5,110.5C 207.5,110.5 206.5,110.5 205.5,110.5C 205.649,109.448 205.483,108.448 205,107.5C 194.432,115.749 191.265,113.415 195.5,100.5C 196.131,98.0248 197.131,95.6915 198.5,93.5C 200.793,96.0589 203.293,96.0589 206,93.5C 206.308,94.3081 206.808,94.9747 207.5,95.5C 212.906,93.9245 218.24,93.2578 223.5,93.5 Z"/></g>
<g><path style="opacity:1" fill="#41ba36" d="M 146.5,79.5 C 134.685,90.6321 125.685,103.632 119.5,118.5C 116.283,125.377 114.616,132.71 114.5,140.5C 114.167,140.5 113.833,140.5 113.5,140.5C 113.649,139.448 113.483,138.448 113,137.5C 112.333,136.167 111.667,136.167 111,137.5C 110.503,135.19 110.337,132.857 110.5,130.5C 110.5,130.167 110.5,129.833 110.5,129.5C 111.924,127.485 112.59,125.152 112.5,122.5C 119.751,105.03 131.084,90.6963 146.5,79.5 Z"/></g>
<g><path style="opacity:1" fill="#39ac3b" d="M 291.5,89.5 C 301.582,99.2402 309.249,110.574 314.5,123.5C 315.408,128.353 315.408,133.02 314.5,137.5C 312.666,130.68 310.333,124.013 307.5,117.5C 306.328,113.822 304.661,110.489 302.5,107.5C 299.335,101.166 295.669,95.1663 291.5,89.5 Z"/></g>
<g><path style="opacity:1" fill="#3cb232" d="M 234.5,80.5 C 234.833,80.5 235.167,80.5 235.5,80.5C 249.736,85.7555 261.736,94.0888 271.5,105.5C 278.931,115.364 283.931,126.364 286.5,138.5C 286.5,138.833 286.5,139.167 286.5,139.5C 285.549,137.882 284.216,136.549 282.5,135.5C 283.229,133.405 282.563,131.572 280.5,130C 281.022,129.439 281.355,128.772 281.5,128C 279.888,126.518 278.888,124.685 278.5,122.5C 277.5,122.5 276.5,122.5 275.5,122.5C 265.912,105.413 252.079,93.0794 234,85.5C 233.22,83.6131 233.387,81.9464 234.5,80.5 Z"/></g>
<g><path style="opacity:1" fill="#8eef5c" d="M 302.5,107.5 C 304.661,110.489 306.328,113.822 307.5,117.5C 307.553,121.333 308.053,124.999 309,128.5C 308.667,128.833 308.333,129.167 308,129.5C 306.951,127.893 305.451,127.227 303.5,127.5C 303.421,128.93 303.754,130.264 304.5,131.5C 301.659,132.975 298.659,134.141 295.5,135C 296.28,136.073 296.113,137.24 295,138.5C 293.221,137.521 291.555,137.854 290,139.5C 289.372,136.046 288.205,135.713 286.5,138.5C 283.931,126.364 278.931,115.364 271.5,105.5C 273.376,102.825 274.876,103.158 276,106.5C 282.111,105.718 288.444,105.384 295,105.5C 296.888,105.796 298.722,106.296 300.5,107C 300.043,107.414 299.709,107.914 299.5,108.5C 301.052,109.798 302.052,109.465 302.5,107.5 Z"/></g>
<g><path style="opacity:1" fill="#78c477" d="M 112.5,122.5 C 112.59,125.152 111.924,127.485 110.5,129.5C 110.41,126.848 111.076,124.515 112.5,122.5 Z"/></g>
<g><path style="opacity:1" fill="#34c343" d="M 196.5,89.5 C 195.886,93.1352 195.552,96.8019 195.5,100.5C 191.265,113.415 194.432,115.749 205,107.5C 205.483,108.448 205.649,109.448 205.5,110.5C 206.5,110.5 207.5,110.5 208.5,110.5C 208.5,109.5 208.5,108.5 208.5,107.5C 211.881,107.46 215.214,107.793 218.5,108.5C 216.613,115.745 214.279,122.745 211.5,129.5C 206.428,129.971 201.094,130.637 195.5,131.5C 193.837,130.125 192.503,130.458 191.5,132.5C 190.167,131.167 188.833,131.167 187.5,132.5C 187.167,131.667 186.833,130.833 186.5,130C 190.182,118.324 192.849,106.491 194.5,94.5C 194.402,92.4471 195.069,90.7804 196.5,89.5 Z"/></g>
<g><path style="opacity:1" fill="#279f3a" d="M 314.5,123.5 C 318.152,131.807 319.818,140.64 319.5,150C 319.296,160.339 317.963,170.506 315.5,180.5C 313.716,180.893 312.05,181.559 310.5,182.5C 311.66,176.861 312.66,171.195 313.5,165.5C 314.494,156.348 314.827,147.015 314.5,137.5C 315.408,133.02 315.408,128.353 314.5,123.5 Z"/></g>
<g><path style="opacity:1" fill="#8aec5c" d="M 119.5,118.5 C 118.795,121.244 118.795,123.911 119.5,126.5C 124.392,127.903 129.392,128.57 134.5,128.5C 134.745,124.119 136.745,123.286 140.5,126C 141.109,127.948 141.776,129.782 142.5,131.5C 141.833,136.167 141.167,140.833 140.5,145.5C 139.834,148.028 139.168,150.694 138.5,153.5C 135.746,151.876 132.913,150.209 130,148.5C 129.517,149.448 129.351,150.448 129.5,151.5C 126.193,151.063 123.193,151.73 120.5,153.5C 118.091,152.278 116.258,152.945 115,155.5C 114.501,150.511 114.334,145.511 114.5,140.5C 114.616,132.71 116.283,125.377 119.5,118.5 Z"/></g>
<g><path style="opacity:1" fill="#2da836" d="M 275.5,122.5 C 276.5,122.5 277.5,122.5 278.5,122.5C 278.888,124.685 279.888,126.518 281.5,128C 281.355,128.772 281.022,129.439 280.5,130C 282.563,131.572 283.229,133.405 282.5,135.5C 284.216,136.549 285.549,137.882 286.5,139.5C 287.696,148.473 287.696,157.473 286.5,166.5C 285.662,166.842 285.328,167.508 285.5,168.5C 282.074,177.036 277.408,184.703 271.5,191.5C 270.646,190.368 270.646,189.035 271.5,187.5C 284.742,166.63 286.075,144.963 275.5,122.5 Z"/></g>
<g><path style="opacity:1" fill="#afdeaf" d="M 148.5,132.5 C 148.59,135.152 147.924,137.485 146.5,139.5C 146.41,136.848 147.076,134.515 148.5,132.5 Z"/></g>
<g><path style="opacity:1" fill="#1ab43e" d="M 194.5,94.5 C 192.849,106.491 190.182,118.324 186.5,130C 186.833,130.833 187.167,131.667 187.5,132.5C 188.833,131.167 190.167,131.167 191.5,132.5C 192.503,130.458 193.837,130.125 195.5,131.5C 201.094,130.637 206.428,129.971 211.5,129.5C 208.698,138.574 205.698,147.574 202.5,156.5C 201.476,155.862 200.476,155.195 199.5,154.5C 193.963,156.189 188.296,157.356 182.5,158C 184.405,158.826 184.739,159.993 183.5,161.5C 182.167,158.833 180.833,158.833 179.5,161.5C 178.818,160.757 178.151,160.091 177.5,159.5C 178.441,154.238 179.774,149.071 181.5,144C 180.841,141.538 180.507,139.038 180.5,136.5C 184.592,122.225 189.258,108.225 194.5,94.5 Z"/></g>
<g><path style="opacity:1" fill="#80e75b" d="M 307.5,117.5 C 310.333,124.013 312.666,130.68 314.5,137.5C 314.827,147.015 314.494,156.348 313.5,165.5C 310.634,165.659 308.968,166.659 308.5,168.5C 307.757,167.092 306.923,165.759 306,164.5C 301.131,165.174 296.298,166.174 291.5,167.5C 293.748,168.324 293.914,169.324 292,170.5C 291,168.833 290,167.167 289,165.5C 288.329,166.252 287.496,166.586 286.5,166.5C 287.696,157.473 287.696,148.473 286.5,139.5C 286.5,139.167 286.5,138.833 286.5,138.5C 288.205,135.713 289.372,136.046 290,139.5C 291.555,137.854 293.221,137.521 295,138.5C 296.113,137.24 296.28,136.073 295.5,135C 298.659,134.141 301.659,132.975 304.5,131.5C 303.754,130.264 303.421,128.93 303.5,127.5C 305.451,127.227 306.951,127.893 308,129.5C 308.333,129.167 308.667,128.833 309,128.5C 308.053,124.999 307.553,121.333 307.5,117.5 Z"/></g>
<g><path style="opacity:1" fill="#20a235" d="M 110.5,130.5 C 110.337,132.857 110.503,135.19 111,137.5C 111.667,136.167 112.333,136.167 113,137.5C 113.483,138.448 113.649,139.448 113.5,140.5C 113.448,149.518 113.782,158.518 114.5,167.5C 114.028,164.098 112.528,161.098 110,158.5C 110.077,159.738 109.911,160.738 109.5,161.5C 108.503,154.532 108.17,147.532 108.5,140.5C 108.322,136.878 108.989,133.544 110.5,130.5 Z"/></g>
<g><path style="opacity:1" fill="#1f9f2c" d="M 245.5,147.5 C 246.354,153.121 246.687,158.788 246.5,164.5C 245.5,164.5 244.5,164.5 243.5,164.5C 243.5,164.167 243.5,163.833 243.5,163.5C 243.795,161.265 243.461,159.265 242.5,157.5C 242.058,153.846 241.724,150.179 241.5,146.5C 243.099,146.232 244.432,146.566 245.5,147.5 Z"/></g>
<g><path style="opacity:1" fill="#04a93d" d="M 202.5,156.5 C 201.637,158.421 200.971,160.421 200.5,162.5C 200.842,163.338 201.508,163.672 202.5,163.5C 209.088,167.29 216.088,170.29 223.5,172.5C 235.911,176.63 248.744,179.63 262,181.5C 264.185,181.079 266.351,180.579 268.5,180C 267.5,179 266.5,178 265.5,177C 267.119,176.764 268.119,175.931 268.5,174.5C 270.534,175.548 271.867,177.214 272.5,179.5C 263.435,187.238 254.102,194.572 244.5,201.5C 244.748,198.42 245.414,195.42 246.5,192.5C 246.253,191.287 245.586,190.62 244.5,190.5C 219.005,189.502 193.339,189.169 167.5,189.5C 169.73,179.061 173.063,169.061 177.5,159.5C 178.151,160.091 178.818,160.757 179.5,161.5C 180.833,158.833 182.167,158.833 183.5,161.5C 184.739,159.993 184.405,158.826 182.5,158C 188.296,157.356 193.963,156.189 199.5,154.5C 200.476,155.195 201.476,155.862 202.5,156.5 Z"/></g>
<g><path style="opacity:1" fill="#7ae659" d="M 113.5,140.5 C 113.833,140.5 114.167,140.5 114.5,140.5C 114.334,145.511 114.501,150.511 115,155.5C 116.258,152.945 118.091,152.278 120.5,153.5C 123.193,151.73 126.193,151.063 129.5,151.5C 129.351,150.448 129.517,149.448 130,148.5C 132.913,150.209 135.746,151.876 138.5,153.5C 139.168,150.694 139.834,148.028 140.5,145.5C 140.001,154.364 141.001,163.031 143.5,171.5C 143.629,173.216 143.962,174.883 144.5,176.5C 144.631,177.239 144.464,177.906 144,178.5C 142.391,177.853 140.891,177.02 139.5,176C 142.167,175.333 142.167,174.667 139.5,174C 140.596,169.809 139.429,169.309 136,172.5C 133.763,171.944 131.763,170.944 130,169.5C 127.64,171.941 124.973,172.608 122,171.5C 119.991,171.758 118.157,172.425 116.5,173.5C 115.833,171.5 115.167,169.5 114.5,167.5C 113.782,158.518 113.448,149.518 113.5,140.5 Z"/></g>
<g><path style="opacity:1" fill="#1fa040" d="M 180.5,136.5 C 180.507,139.038 180.841,141.538 181.5,144C 179.774,149.071 178.441,154.238 177.5,159.5C 173.063,169.061 169.73,179.061 167.5,189.5C 165.517,189.843 164.183,189.176 163.5,187.5C 168.718,170.274 174.384,153.274 180.5,136.5 Z"/></g>
<g><path style="opacity:1" fill="#88d392" d="M 242.5,157.5 C 243.461,159.265 243.795,161.265 243.5,163.5C 229.833,163.5 216.167,163.5 202.5,163.5C 201.508,163.672 200.842,163.338 200.5,162.5C 214.5,162.5 228.5,162.5 242.5,162.5C 242.5,160.833 242.5,159.167 242.5,157.5 Z"/></g>
<g><path style="opacity:1" fill="#3ab036" d="M 158.5,111.5 C 154.242,118.082 150.909,125.082 148.5,132.5C 147.076,134.515 146.41,136.848 146.5,139.5C 145.508,146.648 145.175,153.981 145.5,161.5C 145.41,164.152 146.076,166.485 147.5,168.5C 147.5,168.833 147.5,169.167 147.5,169.5C 148.925,176.332 147.592,176.999 143.5,171.5C 141.001,163.031 140.001,154.364 140.5,145.5C 141.167,140.833 141.833,136.167 142.5,131.5C 144.478,124.876 147.478,118.876 151.5,113.5C 153.737,112.551 156.071,111.884 158.5,111.5 Z"/></g>
<g><path style="opacity:1" fill="#4cd447" d="M 245.5,147.5 C 250.843,152.844 255.843,158.511 260.5,164.5C 260.414,165.496 260.748,166.329 261.5,167C 257.247,167.2 253.08,167.7 249,168.5C 248.5,168 248,167.5 247.5,167C 243.5,166.667 239.5,166.333 235.5,166C 238.014,164.748 240.68,164.248 243.5,164.5C 244.5,164.5 245.5,164.5 246.5,164.5C 246.687,158.788 246.354,153.121 245.5,147.5 Z"/></g>
<g><path style="opacity:1" fill="#84c983" d="M 145.5,161.5 C 146.924,163.515 147.59,165.848 147.5,168.5C 146.076,166.485 145.41,164.152 145.5,161.5 Z"/></g>
<g><path style="opacity:1" fill="#3bc647" d="M 202.5,163.5 C 216.167,163.5 229.833,163.5 243.5,163.5C 243.5,163.833 243.5,164.167 243.5,164.5C 240.68,164.248 238.014,164.748 235.5,166C 239.5,166.333 243.5,166.667 247.5,167C 248,167.5 248.5,168 249,168.5C 253.08,167.7 257.247,167.2 261.5,167C 260.748,166.329 260.414,165.496 260.5,164.5C 263.645,167.46 266.312,170.793 268.5,174.5C 253.77,174.055 238.77,173.388 223.5,172.5C 216.088,170.29 209.088,167.29 202.5,163.5 Z"/></g>
<g><path style="opacity:1" fill="#1cb63e" d="M 223.5,172.5 C 238.77,173.388 253.77,174.055 268.5,174.5C 268.119,175.931 267.119,176.764 265.5,177C 266.5,178 267.5,179 268.5,180C 266.351,180.579 264.185,181.079 262,181.5C 248.744,179.63 235.911,176.63 223.5,172.5 Z"/></g>
<g><path style="opacity:1" fill="#65dd57" d="M 313.5,165.5 C 312.66,171.195 311.66,176.861 310.5,182.5C 308.252,190.33 304.918,197.663 300.5,204.5C 300.208,200.701 298.208,198.201 294.5,197C 290.607,196.6 286.94,197.433 283.5,199.5C 281.267,199.136 279.434,198.136 278,196.5C 277.692,197.308 277.192,197.975 276.5,198.5C 275.14,197.82 273.807,197.153 272.5,196.5C 278.582,188.429 283.248,179.595 286.5,170C 286.43,169.235 286.097,168.735 285.5,168.5C 285.328,167.508 285.662,166.842 286.5,166.5C 287.496,166.586 288.329,166.252 289,165.5C 290,167.167 291,168.833 292,170.5C 293.914,169.324 293.748,168.324 291.5,167.5C 296.298,166.174 301.131,165.174 306,164.5C 306.923,165.759 307.757,167.092 308.5,168.5C 308.968,166.659 310.634,165.659 313.5,165.5 Z"/></g>
<g><path style="opacity:1" fill="#6fe258" d="M 144.5,176.5 C 144.833,176.5 145.167,176.5 145.5,176.5C 147.175,180.534 148.842,184.534 150.5,188.5C 149.721,190.927 148.554,190.927 147,188.5C 145.605,189.815 144.605,189.481 144,187.5C 142.594,188.668 141.428,188.335 140.5,186.5C 138.571,187.38 136.737,188.38 135,189.5C 130.581,189.149 126.081,189.149 121.5,189.5C 118.633,184.565 116.966,179.231 116.5,173.5C 118.157,172.425 119.991,171.758 122,171.5C 124.973,172.608 127.64,171.941 130,169.5C 131.763,170.944 133.763,171.944 136,172.5C 139.429,169.309 140.596,169.809 139.5,174C 142.167,174.667 142.167,175.333 139.5,176C 140.891,177.02 142.391,177.853 144,178.5C 144.464,177.906 144.631,177.239 144.5,176.5 Z"/></g>
<g><path style="opacity:1" fill="#5fd954" d="M 150.5,188.5 C 154.249,193.643 158.249,198.643 162.5,203.5C 162.688,205.103 162.188,206.437 161,207.5C 159.061,205.764 156.728,204.764 154,204.5C 146.663,206.096 139.496,207.429 132.5,208.5C 127.6,202.921 123.933,196.587 121.5,189.5C 126.081,189.149 130.581,189.149 135,189.5C 136.737,188.38 138.571,187.38 140.5,186.5C 141.428,188.335 142.594,188.668 144,187.5C 144.605,189.481 145.605,189.815 147,188.5C 148.554,190.927 149.721,190.927 150.5,188.5 Z"/></g>
<g><path style="opacity:1" fill="#11903b" d="M 108.5,140.5 C 108.17,147.532 108.503,154.532 109.5,161.5C 109.911,160.738 110.077,159.738 110,158.5C 112.528,161.098 114.028,164.098 114.5,167.5C 115.167,169.5 115.833,171.5 116.5,173.5C 116.966,179.231 118.633,184.565 121.5,189.5C 123.933,196.587 127.6,202.921 132.5,208.5C 133.167,210.167 133.833,211.833 134.5,213.5C 130.999,212.493 127.333,211.16 123.5,209.5C 110.666,188.149 105.666,165.149 108.5,140.5 Z"/></g>
<g><path style="opacity:1" fill="#e7f6e8" d="M 285.5,168.5 C 286.097,168.735 286.43,169.235 286.5,170C 283.248,179.595 278.582,188.429 272.5,196.5C 267.156,201.843 261.489,206.843 255.5,211.5C 247.15,216.682 238.15,220.515 228.5,223C 218.5,223.667 208.5,223.667 198.5,223C 193.419,221.316 188.419,219.482 183.5,217.5C 176.054,213.603 169.054,208.936 162.5,203.5C 158.249,198.643 154.249,193.643 150.5,188.5C 148.842,184.534 147.175,180.534 145.5,176.5C 149.978,182.767 154.478,189.1 159,195.5C 191.085,227.265 225.252,229.765 261.5,203C 265.416,199.59 268.749,195.757 271.5,191.5C 277.408,184.703 282.074,177.036 285.5,168.5 Z"/></g>
<g><path style="opacity:1" fill="#4ad151" d="M 272.5,196.5 C 273.807,197.153 275.14,197.82 276.5,198.5C 277.192,197.975 277.692,197.308 278,196.5C 279.434,198.136 281.267,199.136 283.5,199.5C 286.94,197.433 290.607,196.6 294.5,197C 298.208,198.201 300.208,200.701 300.5,204.5C 295.94,212.393 290.274,219.393 283.5,225.5C 282.761,225.631 282.094,225.464 281.5,225C 282.833,223.667 282.833,222.333 281.5,221C 283.645,220.257 283.811,219.424 282,218.5C 277.764,216.082 273.43,214.748 269,214.5C 268.326,215.578 267.326,216.245 266,216.5C 264.089,215.593 262.256,215.593 260.5,216.5C 259.065,214.599 257.398,214.266 255.5,215.5C 253.206,214.375 253.206,213.041 255.5,211.5C 261.489,206.843 267.156,201.843 272.5,196.5 Z"/></g>
<g><path style="opacity:1" fill="#4ed252" d="M 162.5,203.5 C 169.054,208.936 176.054,213.603 183.5,217.5C 183.577,218.75 184.244,219.583 185.5,220C 185.167,220.333 184.833,220.667 184.5,221C 180.493,220.337 176.493,220.503 172.5,221.5C 170.224,220.787 167.891,220.287 165.5,220C 164.833,219.333 164.167,218.667 163.5,218C 164.738,218.077 165.738,217.911 166.5,217.5C 164.392,216.645 162.226,215.978 160,215.5C 155.333,216.535 151.166,218.535 147.5,221.5C 145.997,220.948 144.331,220.948 142.5,221.5C 139.833,218.833 137.167,216.167 134.5,213.5C 133.833,211.833 133.167,210.167 132.5,208.5C 139.496,207.429 146.663,206.096 154,204.5C 156.728,204.764 159.061,205.764 161,207.5C 162.188,206.437 162.688,205.103 162.5,203.5 Z"/></g>
<g><path style="opacity:1" fill="#a0bf44" d="M 295.5,250.5 C 291.945,251.054 289.612,253.054 288.5,256.5C 287.642,260.673 286.976,265.007 286.5,269.5C 283.505,269.294 280.838,269.96 278.5,271.5C 277.5,271.5 276.5,271.5 275.5,271.5C 275.5,272.833 275.5,274.167 275.5,275.5C 273.265,275.205 271.265,275.539 269.5,276.5C 268.833,276.5 268.167,276.5 267.5,276.5C 261.963,277.087 256.63,278.087 251.5,279.5C 249.738,279.357 248.071,279.691 246.5,280.5C 245.526,282.743 245.192,285.076 245.5,287.5C 245.167,287.5 244.833,287.5 244.5,287.5C 241.703,287.967 240.369,289.633 240.5,292.5C 239.427,300.159 238.427,307.825 237.5,315.5C 234.144,343.301 230.811,370.968 227.5,398.5C 217.167,398.5 206.833,398.5 196.5,398.5C 196.5,352.167 196.5,305.833 196.5,259.5C 207.09,260.642 217.757,260.808 228.5,260C 234.815,258.761 240.815,256.928 246.5,254.5C 262.645,249.761 276.645,241.428 288.5,229.5C 310.651,225.004 332.651,220.004 354.5,214.5C 357.841,213.995 361.174,213.828 364.5,214C 363.585,215.422 363.585,217.089 364.5,219C 366.199,219.393 367.699,218.893 369,217.5C 369.5,217.833 370,218.167 370.5,218.5C 369.15,219.95 367.484,220.617 365.5,220.5C 365.48,222.143 366.147,223.476 367.5,224.5C 366.975,225.192 366.308,225.692 365.5,226C 367.847,227.086 367.847,228.419 365.5,230C 366.921,232.843 367.921,235.843 368.5,239C 367.833,240.333 366.833,241.333 365.5,242C 366.641,242.741 366.641,243.575 365.5,244.5C 367.655,245.41 369.655,246.577 371.5,248C 370.044,249.745 368.711,251.578 367.5,253.5C 369.333,255.166 370.666,257.166 371.5,259.5C 372.59,258.273 373.924,257.44 375.5,257C 374.833,256.667 374.167,256.333 373.5,256C 374.784,255.316 375.951,255.483 377,256.5C 377.368,262.04 377.368,267.707 377,273.5C 373.22,274.336 369.886,275.336 367,276.5C 364.304,275.81 362.137,274.31 360.5,272C 361.345,270.442 360.679,269.442 358.5,269C 359.179,265.286 360.179,261.619 361.5,258C 360.849,255.17 359.516,252.67 357.5,250.5C 353.97,253.969 353.637,257.802 356.5,262C 353.334,264.176 351.168,263.343 350,259.5C 348.706,260.854 348.54,262.188 349.5,263.5C 348.038,264.471 346.705,264.138 345.5,262.5C 346.95,261.15 347.617,259.484 347.5,257.5C 348.552,257.649 349.552,257.483 350.5,257C 348.749,255.855 346.916,255.355 345,255.5C 344.284,252.28 343.117,249.28 341.5,246.5C 340.833,247.833 340.167,249.167 339.5,250.5C 338.575,249.359 337.741,249.359 337,250.5C 336.383,249.551 336.549,248.718 337.5,248C 336.975,247.308 336.308,246.808 335.5,246.5C 334.59,248.655 333.423,250.655 332,252.5C 328.047,248.774 324.881,249.608 322.5,255C 323.448,255.483 324.448,255.649 325.5,255.5C 325.5,256.5 325.5,257.5 325.5,258.5C 319.604,258.848 319.271,260.015 324.5,262C 320.577,262.793 316.744,262.626 313,261.5C 312.29,262.973 311.124,263.64 309.5,263.5C 309.5,262.167 309.5,260.833 309.5,259.5C 311.96,259.301 314.293,258.635 316.5,257.5C 314.615,256.803 314.282,255.803 315.5,254.5C 314.726,253.289 313.893,253.289 313,254.5C 312.308,253.975 311.808,253.308 311.5,252.5C 312.315,250.724 313.482,250.057 315,250.5C 315.483,249.552 315.649,248.552 315.5,247.5C 312.708,247.452 310.875,248.785 310,251.5C 309.667,250.167 309.333,248.833 309,247.5C 308,248.5 307,249.5 306,250.5C 305.02,249.019 303.853,247.685 302.5,246.5C 301.614,247.325 301.281,248.325 301.5,249.5C 299.265,249.205 297.265,249.539 295.5,250.5 Z"/></g>
<g><path style="opacity:1" fill="#3ba44e" d="M 147.5,169.5 C 157.228,196.39 176.228,212.557 204.5,218C 232.405,219.709 254.739,209.542 271.5,187.5C 270.646,189.035 270.646,190.368 271.5,191.5C 268.749,195.757 265.416,199.59 261.5,203C 225.252,229.765 191.085,227.265 159,195.5C 154.478,189.1 149.978,182.767 145.5,176.5C 145.167,176.5 144.833,176.5 144.5,176.5C 143.962,174.883 143.629,173.216 143.5,171.5C 147.592,176.999 148.925,176.332 147.5,169.5 Z"/></g>
<g><path style="opacity:1" fill="#28933e" d="M 244.5,190.5 C 245.586,190.62 246.253,191.287 246.5,192.5C 245.414,195.42 244.748,198.42 244.5,201.5C 243.791,202.404 242.791,202.737 241.5,202.5C 242.488,198.516 243.488,194.516 244.5,190.5 Z"/></g>
<g><path style="opacity:1" fill="#60b77f" d="M 163.5,187.5 C 164.183,189.176 165.517,189.843 167.5,189.5C 193.339,189.169 219.005,189.502 244.5,190.5C 217.167,190.5 189.833,190.5 162.5,190.5C 162.263,189.209 162.596,188.209 163.5,187.5 Z"/></g>
<g><path style="opacity:1" fill="#40cb52" d="M 255.5,211.5 C 253.206,213.041 253.206,214.375 255.5,215.5C 257.398,214.266 259.065,214.599 260.5,216.5C 262.256,215.593 264.089,215.593 266,216.5C 267.326,216.245 268.326,215.578 269,214.5C 273.43,214.748 277.764,216.082 282,218.5C 283.811,219.424 283.645,220.257 281.5,221C 282.833,222.333 282.833,223.667 281.5,225C 282.094,225.464 282.761,225.631 283.5,225.5C 283.167,226.5 282.5,227.167 281.5,227.5C 280.504,227.586 279.671,227.252 279,226.5C 278.751,227.624 278.251,228.624 277.5,229.5C 276.167,228.167 274.833,226.833 273.5,225.5C 271.841,227.587 270.174,227.254 268.5,224.5C 267.833,225.167 267.167,225.833 266.5,226.5C 263.966,225.212 261.466,225.212 259,226.5C 255.925,225.751 252.925,224.751 250,223.5C 247.544,224.15 245.21,225.15 243,226.5C 240.484,225.227 237.984,225.227 235.5,226.5C 234.152,224.539 232.819,224.372 231.5,226C 227.805,226.318 224.138,226.818 220.5,227.5C 219.558,227.392 218.725,227.059 218,226.5C 216.687,227.573 215.187,228.24 213.5,228.5C 208.189,227.805 202.855,227.639 197.5,228C 195.871,227.415 194.371,226.581 193,225.5C 191.089,228.023 189.255,228.023 187.5,225.5C 185.167,228.167 182.833,228.167 180.5,225.5C 178.091,228.775 175.424,229.442 172.5,227.5C 172.167,227.833 171.833,228.167 171.5,228.5C 172.376,229.251 173.376,229.751 174.5,230C 171.978,230.61 169.978,231.943 168.5,234C 164.783,235.075 161.116,235.241 157.5,234.5C 151.609,231.281 146.609,226.948 142.5,221.5C 144.331,220.948 145.997,220.948 147.5,221.5C 151.166,218.535 155.333,216.535 160,215.5C 162.226,215.978 164.392,216.645 166.5,217.5C 165.738,217.911 164.738,218.077 163.5,218C 164.167,218.667 164.833,219.333 165.5,220C 167.891,220.287 170.224,220.787 172.5,221.5C 176.493,220.503 180.493,220.337 184.5,221C 184.833,220.667 185.167,220.333 185.5,220C 184.244,219.583 183.577,218.75 183.5,217.5C 188.419,219.482 193.419,221.316 198.5,223C 208.5,223.667 218.5,223.667 228.5,223C 238.15,220.515 247.15,216.682 255.5,211.5 Z"/></g>
<g><path style="opacity:1" fill="#34c44f" d="M 281.5,227.5 C 275.321,233.336 268.321,238.003 260.5,241.5C 258.064,241.317 255.897,241.984 254,243.5C 251.572,240.919 249.239,238.919 247,237.5C 243.927,238.617 240.76,238.784 237.5,238C 239.392,237.027 241.392,236.36 243.5,236C 241.236,235.764 239.069,235.264 237,234.5C 234.246,237.052 231.246,238.385 228,238.5C 223.994,234.319 220.328,234.653 217,239.5C 216.945,237.115 215.778,235.781 213.5,235.5C 208.576,237.7 203.409,239.033 198,239.5C 197.289,237.633 197.789,236.133 199.5,235C 198.892,234.13 198.059,233.63 197,233.5C 194.545,234.952 191.878,235.952 189,236.5C 188.05,235.978 187.216,235.311 186.5,234.5C 185.315,235.853 183.981,237.02 182.5,238C 183.517,239.049 183.684,240.216 183,241.5C 180.092,240.715 177.258,240.381 174.5,240.5C 173.378,241.63 172.044,242.297 170.5,242.5C 166.577,241.205 162.91,239.372 159.5,237C 158.619,236.292 157.953,235.458 157.5,234.5C 161.116,235.241 164.783,235.075 168.5,234C 169.978,231.943 171.978,230.61 174.5,230C 173.376,229.751 172.376,229.251 171.5,228.5C 171.833,228.167 172.167,227.833 172.5,227.5C 175.424,229.442 178.091,228.775 180.5,225.5C 182.833,228.167 185.167,228.167 187.5,225.5C 189.255,228.023 191.089,228.023 193,225.5C 194.371,226.581 195.871,227.415 197.5,228C 202.855,227.639 208.189,227.805 213.5,228.5C 215.187,228.24 216.687,227.573 218,226.5C 218.725,227.059 219.558,227.392 220.5,227.5C 224.138,226.818 227.805,226.318 231.5,226C 232.819,224.372 234.152,224.539 235.5,226.5C 237.984,225.227 240.484,225.227 243,226.5C 245.21,225.15 247.544,224.15 250,223.5C 252.925,224.751 255.925,225.751 259,226.5C 261.466,225.212 263.966,225.212 266.5,226.5C 267.167,225.833 267.833,225.167 268.5,224.5C 270.174,227.254 271.841,227.587 273.5,225.5C 274.833,226.833 276.167,228.167 277.5,229.5C 278.251,228.624 278.751,227.624 279,226.5C 279.671,227.252 280.504,227.586 281.5,227.5 Z"/></g>
<g><path style="opacity:1" fill="#10853c" d="M 315.5,180.5 C 310.381,199.08 301.381,215.413 288.5,229.5C 276.645,241.428 262.645,249.761 246.5,254.5C 245.022,254.762 243.689,254.429 242.5,253.5C 243.506,252.604 243.506,251.938 242.5,251.5C 241.28,252.711 240.113,252.711 239,251.5C 238.167,252.5 237.333,253.5 236.5,254.5C 235.532,253.511 234.365,252.844 233,252.5C 229.542,253.286 226.042,253.62 222.5,253.5C 228.881,252.213 235.381,250.88 242,249.5C 248.537,247.495 254.704,244.828 260.5,241.5C 268.321,238.003 275.321,233.336 281.5,227.5C 282.5,227.167 283.167,226.5 283.5,225.5C 290.274,219.393 295.94,212.393 300.5,204.5C 304.918,197.663 308.252,190.33 310.5,182.5C 312.05,181.559 313.716,180.893 315.5,180.5 Z"/></g>
<g><path style="opacity:1" fill="#7f9a48" d="M 398.5,229.5 C 398.5,289.5 398.5,349.5 398.5,409.5C 397.5,409.5 396.5,409.5 395.5,409.5C 390.009,409.752 384.675,409.085 379.5,407.5C 379.5,347.5 379.5,287.5 379.5,227.5C 384.805,226.558 390.139,226.391 395.5,227C 396.942,227.377 397.942,228.21 398.5,229.5 Z"/></g>
<g><path style="opacity:1" fill="#0d833d" d="M 123.5,209.5 C 127.333,211.16 130.999,212.493 134.5,213.5C 137.167,216.167 139.833,218.833 142.5,221.5C 146.609,226.948 151.609,231.281 157.5,234.5C 157.953,235.458 158.619,236.292 159.5,237C 162.91,239.372 166.577,241.205 170.5,242.5C 174.5,244.5 178.5,246.5 182.5,248.5C 181.089,250.539 179.089,251.539 176.5,251.5C 176.657,250.127 176.49,248.793 176,247.5C 175.592,249.41 174.425,250.41 172.5,250.5C 170.547,249.844 168.547,249.511 166.5,249.5C 148.341,240.343 134.007,227.009 123.5,209.5 Z"/></g>
<g><path style="opacity:1" fill="#2abe4e" d="M 260.5,241.5 C 254.704,244.828 248.537,247.495 242,249.5C 235.381,250.88 228.881,252.213 222.5,253.5C 208.9,253.8 195.567,252.133 182.5,248.5C 178.5,246.5 174.5,244.5 170.5,242.5C 172.044,242.297 173.378,241.63 174.5,240.5C 177.258,240.381 180.092,240.715 183,241.5C 183.684,240.216 183.517,239.049 182.5,238C 183.981,237.02 185.315,235.853 186.5,234.5C 187.216,235.311 188.05,235.978 189,236.5C 191.878,235.952 194.545,234.952 197,233.5C 198.059,233.63 198.892,234.13 199.5,235C 197.789,236.133 197.289,237.633 198,239.5C 203.409,239.033 208.576,237.7 213.5,235.5C 215.778,235.781 216.945,237.115 217,239.5C 220.328,234.653 223.994,234.319 228,238.5C 231.246,238.385 234.246,237.052 237,234.5C 239.069,235.264 241.236,235.764 243.5,236C 241.392,236.36 239.392,237.027 237.5,238C 240.76,238.784 243.927,238.617 247,237.5C 249.239,238.919 251.572,240.919 254,243.5C 255.897,241.984 258.064,241.317 260.5,241.5 Z"/></g>
<g><path style="opacity:1" fill="#a0bd47" d="M 370.5,209.5 C 373.119,209.232 375.619,209.565 378,210.5C 378.832,259.668 378.665,308.668 377.5,357.5C 370.48,330.575 363.647,303.575 357,276.5C 355.527,273.073 353.027,270.739 349.5,269.5C 348.614,268.675 348.281,267.675 348.5,266.5C 346.784,266.371 345.117,266.038 343.5,265.5C 336.782,265.698 330.115,266.365 323.5,267.5C 323.5,266.167 323.5,264.833 323.5,263.5C 317.738,263.436 312.071,264.103 306.5,265.5C 308.33,256.182 304.663,251.182 295.5,250.5C 297.265,249.539 299.265,249.205 301.5,249.5C 301.281,248.325 301.614,247.325 302.5,246.5C 303.853,247.685 305.02,249.019 306,250.5C 307,249.5 308,248.5 309,247.5C 309.333,248.833 309.667,250.167 310,251.5C 310.875,248.785 312.708,247.452 315.5,247.5C 315.649,248.552 315.483,249.552 315,250.5C 313.482,250.057 312.315,250.724 311.5,252.5C 311.808,253.308 312.308,253.975 313,254.5C 313.893,253.289 314.726,253.289 315.5,254.5C 314.282,255.803 314.615,256.803 316.5,257.5C 314.293,258.635 311.96,259.301 309.5,259.5C 309.5,260.833 309.5,262.167 309.5,263.5C 311.124,263.64 312.29,262.973 313,261.5C 316.744,262.626 320.577,262.793 324.5,262C 319.271,260.015 319.604,258.848 325.5,258.5C 325.5,257.5 325.5,256.5 325.5,255.5C 324.448,255.649 323.448,255.483 322.5,255C 324.881,249.608 328.047,248.774 332,252.5C 333.423,250.655 334.59,248.655 335.5,246.5C 336.308,246.808 336.975,247.308 337.5,248C 336.549,248.718 336.383,249.551 337,250.5C 337.741,249.359 338.575,249.359 339.5,250.5C 340.167,249.167 340.833,247.833 341.5,246.5C 343.117,249.28 344.284,252.28 345,255.5C 346.916,255.355 348.749,255.855 350.5,257C 349.552,257.483 348.552,257.649 347.5,257.5C 347.617,259.484 346.95,261.15 345.5,262.5C 346.705,264.138 348.038,264.471 349.5,263.5C 348.54,262.188 348.706,260.854 350,259.5C 351.168,263.343 353.334,264.176 356.5,262C 353.637,257.802 353.97,253.969 357.5,250.5C 359.516,252.67 360.849,255.17 361.5,258C 360.179,261.619 359.179,265.286 358.5,269C 360.679,269.442 361.345,270.442 360.5,272C 362.137,274.31 364.304,275.81 367,276.5C 369.886,275.336 373.22,274.336 377,273.5C 377.368,267.707 377.368,262.04 377,256.5C 375.951,255.483 374.784,255.316 373.5,256C 374.167,256.333 374.833,256.667 375.5,257C 373.924,257.44 372.59,258.273 371.5,259.5C 370.666,257.166 369.333,255.166 367.5,253.5C 368.711,251.578 370.044,249.745 371.5,248C 369.655,246.577 367.655,245.41 365.5,244.5C 366.641,243.575 366.641,242.741 365.5,242C 366.833,241.333 367.833,240.333 368.5,239C 367.921,235.843 366.921,232.843 365.5,230C 367.847,228.419 367.847,227.086 365.5,226C 366.308,225.692 366.975,225.192 367.5,224.5C 366.147,223.476 365.48,222.143 365.5,220.5C 367.484,220.617 369.15,219.95 370.5,218.5C 370,218.167 369.5,217.833 369,217.5C 367.699,218.893 366.199,219.393 364.5,219C 363.585,217.089 363.585,215.422 364.5,214C 361.174,213.828 357.841,213.995 354.5,214.5C 354.611,213.883 354.944,213.383 355.5,213C 360.493,211.723 365.493,210.556 370.5,209.5 Z"/></g>
<g><path style="opacity:1" fill="#117d41" d="M 182.5,248.5 C 195.567,252.133 208.9,253.8 222.5,253.5C 226.042,253.62 229.542,253.286 233,252.5C 234.365,252.844 235.532,253.511 236.5,254.5C 237.333,253.5 238.167,252.5 239,251.5C 240.113,252.711 241.28,252.711 242.5,251.5C 243.506,251.938 243.506,252.604 242.5,253.5C 243.689,254.429 245.022,254.762 246.5,254.5C 240.815,256.928 234.815,258.761 228.5,260C 217.757,260.808 207.09,260.642 196.5,259.5C 196.167,259.5 195.833,259.5 195.5,259.5C 185.061,258.132 175.394,254.799 166.5,249.5C 168.547,249.511 170.547,249.844 172.5,250.5C 174.425,250.41 175.592,249.41 176,247.5C 176.49,248.793 176.657,250.127 176.5,251.5C 179.089,251.539 181.089,250.539 182.5,248.5 Z"/></g>
<g><path style="opacity:1" fill="#495661" d="M 295.5,250.5 C 304.663,251.182 308.33,256.182 306.5,265.5C 304.833,265.5 303.167,265.5 301.5,265.5C 302.069,261.671 301.402,258.337 299.5,255.5C 297.052,254.527 294.385,254.194 291.5,254.5C 291.15,259.031 291.817,263.364 293.5,267.5C 292.432,268.434 291.099,268.768 289.5,268.5C 288.728,264.548 288.395,260.548 288.5,256.5C 289.612,253.054 291.945,251.054 295.5,250.5 Z"/></g>
<g><path style="opacity:1" fill="#656f73" d="M 299.5,255.5 C 301.402,258.337 302.069,261.671 301.5,265.5C 299.343,266.407 297.01,267.073 294.5,267.5C 294.167,267.5 293.833,267.5 293.5,267.5C 291.817,263.364 291.15,259.031 291.5,254.5C 294.385,254.194 297.052,254.527 299.5,255.5 Z"/></g>
<g><path style="opacity:1" fill="#f4f5f1" d="M 299.5,255.5 C 301.926,260.972 300.259,263.139 294.5,262C 292.848,257.472 294.514,255.305 299.5,255.5 Z"/></g>
<g><path style="opacity:1" fill="#87a258" d="M 288.5,256.5 C 288.395,260.548 288.728,264.548 289.5,268.5C 289.5,268.833 289.5,269.167 289.5,269.5C 288.5,269.5 287.5,269.5 286.5,269.5C 286.976,265.007 287.642,260.673 288.5,256.5 Z"/></g>
<g><path style="opacity:1" fill="#1e2b40" d="M 343.5,265.5 C 344.731,266.718 345.898,268.051 347,269.5C 351.156,297.456 354.989,325.456 358.5,353.5C 358.198,357.79 358.864,361.79 360.5,365.5C 362.043,374.79 362.876,384.124 363,393.5C 360.464,396.968 356.964,398.634 352.5,398.5C 345.992,399.237 339.659,400.237 333.5,401.5C 320.186,403.63 306.852,405.63 293.5,407.5C 288.18,408.26 282.847,408.927 277.5,409.5C 276.5,409.5 275.5,409.5 274.5,409.5C 270.416,365.823 265.75,322.156 260.5,278.5C 263.228,278.829 265.562,278.163 267.5,276.5C 268.167,276.5 268.833,276.5 269.5,276.5C 272.119,276.232 274.619,276.565 277,277.5C 277.498,280.817 277.665,284.15 277.5,287.5C 275.901,287.232 274.568,287.566 273.5,288.5C 272.5,288.5 271.5,288.5 270.5,288.5C 269.167,288.5 267.833,288.5 266.5,288.5C 266.044,293.607 267.044,298.274 269.5,302.5C 269.5,302.833 269.5,303.167 269.5,303.5C 269.229,308.434 269.896,313.1 271.5,317.5C 271.5,317.833 271.5,318.167 271.5,318.5C 271.198,322.79 271.864,326.79 273.5,330.5C 273.5,331.5 273.5,332.5 273.5,333.5C 275.609,350.16 277.942,366.827 280.5,383.5C 281.167,388.167 281.833,392.833 282.5,397.5C 305.474,393.761 328.474,390.095 351.5,386.5C 351.632,383.43 351.299,380.43 350.5,377.5C 350.638,372.586 349.972,367.919 348.5,363.5C 348.5,362.5 348.5,361.5 348.5,360.5C 347.951,354.626 346.951,348.959 345.5,343.5C 345.16,337.13 344.494,330.796 343.5,324.5C 343.451,320.922 342.785,317.589 341.5,314.5C 341.5,313.5 341.5,312.5 341.5,311.5C 341.556,306.269 340.889,301.269 339.5,296.5C 339.247,292.96 338.581,289.627 337.5,286.5C 337.5,283.833 337.5,281.167 337.5,278.5C 333.821,278.724 330.154,279.058 326.5,279.5C 325.351,279.209 324.684,278.376 324.5,277C 323.744,273.875 323.411,270.709 323.5,267.5C 330.115,266.365 336.782,265.698 343.5,265.5 Z"/></g>
<g><path style="opacity:1" fill="#d1dbda" d="M 322.5,273.5 C 322.993,275.806 323.326,278.139 323.5,280.5C 323.5,281.5 323.5,282.5 323.5,283.5C 318.002,285.21 312.335,285.876 306.5,285.5C 306.562,280.08 306.395,274.747 306,269.5C 311.03,267.927 316.197,266.927 321.5,266.5C 321.198,269.059 321.532,271.393 322.5,273.5 Z"/></g>
<g><path style="opacity:1" fill="#5e6869" d="M 300.5,289.5 C 300.5,289.833 300.5,290.167 300.5,290.5C 293.202,291.76 285.869,292.76 278.5,293.5C 278.795,291.265 278.461,289.265 277.5,287.5C 277.665,284.15 277.498,280.817 277,277.5C 274.619,276.565 272.119,276.232 269.5,276.5C 271.265,275.539 273.265,275.205 275.5,275.5C 275.5,274.167 275.5,272.833 275.5,271.5C 276.5,271.5 277.5,271.5 278.5,271.5C 282.476,270.669 286.476,270.503 290.5,271C 289.426,271.739 288.759,272.739 288.5,274C 288.5,276.667 288.5,279.333 288.5,282C 289.068,283.872 289.735,285.705 290.5,287.5C 293.977,288.167 297.311,288.834 300.5,289.5 Z"/></g>
<g><path style="opacity:1" fill="#a8b3ae" d="M 323.5,267.5 C 322.539,269.265 322.205,271.265 322.5,273.5C 321.532,271.393 321.198,269.059 321.5,266.5C 316.197,266.927 311.03,267.927 306,269.5C 306.395,274.747 306.562,280.08 306.5,285.5C 304.224,285.244 303.057,283.91 303,281.5C 301.844,277.582 301.344,273.582 301.5,269.5C 305.422,268.883 305.422,268.216 301.5,267.5C 298.982,268.424 296.648,268.424 294.5,267.5C 297.01,267.073 299.343,266.407 301.5,265.5C 303.167,265.5 304.833,265.5 306.5,265.5C 312.071,264.103 317.738,263.436 323.5,263.5C 323.5,264.833 323.5,266.167 323.5,267.5 Z"/></g>
<g><path style="opacity:1" fill="#374644" d="M 267.5,276.5 C 265.562,278.163 263.228,278.829 260.5,278.5C 257.609,279.403 254.609,279.736 251.5,279.5C 256.63,278.087 261.963,277.087 267.5,276.5 Z"/></g>
<g><path style="opacity:1" fill="#2b354e" d="M 260.5,278.5 C 265.75,322.156 270.416,365.823 274.5,409.5C 275.5,409.5 276.5,409.5 277.5,409.5C 277.5,409.833 277.5,410.167 277.5,410.5C 274.482,410.704 271.482,411.037 268.5,411.5C 267.167,411.5 265.833,411.5 264.5,411.5C 264.768,409.901 264.434,408.568 263.5,407.5C 263.552,405.097 263.219,402.764 262.5,400.5C 262.5,399.833 262.5,399.167 262.5,398.5C 261.72,387.891 260.054,377.557 257.5,367.5C 256.708,356.968 255.375,346.635 253.5,336.5C 253.5,336.167 253.5,335.833 253.5,335.5C 253.192,331.64 252.525,327.974 251.5,324.5C 251.5,323.833 251.5,323.167 251.5,322.5C 251.698,317.25 251.031,312.25 249.5,307.5C 249.116,302.99 248.449,298.657 247.5,294.5C 247.59,291.848 246.924,289.515 245.5,287.5C 245.192,285.076 245.526,282.743 246.5,280.5C 248.071,279.691 249.738,279.357 251.5,279.5C 254.609,279.736 257.609,279.403 260.5,278.5 Z"/></g>
<g><path style="opacity:1" fill="#f6f7d1" d="M 337.5,286.5 C 333.833,286.5 330.167,286.5 326.5,286.5C 325.737,285.732 324.737,285.232 323.5,285C 324.448,284.517 325.448,284.351 326.5,284.5C 326.5,283.167 326.5,281.833 326.5,280.5C 326.5,280.167 326.5,279.833 326.5,279.5C 330.154,279.058 333.821,278.724 337.5,278.5C 337.5,281.167 337.5,283.833 337.5,286.5 Z"/></g>
<g><path style="opacity:1" fill="#646f73" d="M 323.5,267.5 C 323.411,270.709 323.744,273.875 324.5,277C 324.684,278.376 325.351,279.209 326.5,279.5C 326.5,279.833 326.5,280.167 326.5,280.5C 325.778,280.918 325.278,281.584 325,282.5C 324.722,281.584 324.222,280.918 323.5,280.5C 323.326,278.139 322.993,275.806 322.5,273.5C 322.205,271.265 322.539,269.265 323.5,267.5 Z"/></g>
<g><path style="opacity:1" fill="#8e9896" d="M 293.5,267.5 C 293.833,267.5 294.167,267.5 294.5,267.5C 296.648,268.424 298.982,268.424 301.5,267.5C 305.422,268.216 305.422,268.883 301.5,269.5C 301.344,273.582 301.844,277.582 303,281.5C 303.057,283.91 304.224,285.244 306.5,285.5C 312.335,285.876 318.002,285.21 323.5,283.5C 323.5,282.5 323.5,281.5 323.5,280.5C 324.222,280.918 324.722,281.584 325,282.5C 325.278,281.584 325.778,280.918 326.5,280.5C 326.5,281.833 326.5,283.167 326.5,284.5C 325.448,284.351 324.448,284.517 323.5,285C 324.737,285.232 325.737,285.732 326.5,286.5C 317.863,287.996 309.196,289.33 300.5,290.5C 300.5,290.167 300.5,289.833 300.5,289.5C 302.482,289.005 304.482,288.505 306.5,288C 303.518,287.502 300.518,287.335 297.5,287.5C 296.316,283.773 295.649,279.94 295.5,276C 295.6,273.698 296.267,271.698 297.5,270C 294.854,269.503 292.187,269.336 289.5,269.5C 289.5,269.167 289.5,268.833 289.5,268.5C 291.099,268.768 292.432,268.434 293.5,267.5 Z"/></g>
<g><path style="opacity:1" fill="#717a7a" d="M 286.5,269.5 C 287.5,269.5 288.5,269.5 289.5,269.5C 292.187,269.336 294.854,269.503 297.5,270C 296.267,271.698 295.6,273.698 295.5,276C 295.649,279.94 296.316,283.773 297.5,287.5C 300.518,287.335 303.518,287.502 306.5,288C 304.482,288.505 302.482,289.005 300.5,289.5C 297.311,288.834 293.977,288.167 290.5,287.5C 289.735,285.705 289.068,283.872 288.5,282C 288.5,279.333 288.5,276.667 288.5,274C 288.759,272.739 289.426,271.739 290.5,271C 286.476,270.503 282.476,270.669 278.5,271.5C 280.838,269.96 283.505,269.294 286.5,269.5 Z"/></g>
<g><path style="opacity:1" fill="#98b452" d="M 370.5,209.5 C 373.23,208.183 376.063,208.183 379,209.5C 379.499,215.491 379.666,221.491 379.5,227.5C 379.5,287.5 379.5,347.5 379.5,407.5C 378.833,407.5 378.167,407.5 377.5,407.5C 377.5,390.833 377.5,374.167 377.5,357.5C 378.665,308.668 378.832,259.668 378,210.5C 375.619,209.565 373.119,209.232 370.5,209.5 Z"/></g>
<g><path style="opacity:1" fill="#f0f7c3" d="M 270.5,288.5 C 271.5,288.5 272.5,288.5 273.5,288.5C 274.833,288.5 276.167,288.5 277.5,288.5C 277.5,290.167 277.5,291.833 277.5,293.5C 274.655,294.344 271.655,295.01 268.5,295.5C 267.539,293.735 267.205,291.735 267.5,289.5C 268.791,289.737 269.791,289.404 270.5,288.5 Z"/></g>
<g><path style="opacity:1" fill="#9ea897" d="M 273.5,288.5 C 274.568,287.566 275.901,287.232 277.5,287.5C 278.461,289.265 278.795,291.265 278.5,293.5C 278.167,293.5 277.833,293.5 277.5,293.5C 277.5,291.833 277.5,290.167 277.5,288.5C 276.167,288.5 274.833,288.5 273.5,288.5 Z"/></g>
<g><path style="opacity:1" fill="#d2d6c5" d="M 244.5,287.5 C 244.833,287.5 245.167,287.5 245.5,287.5C 246.924,289.515 247.59,291.848 247.5,294.5C 246.833,293.5 246.167,292.5 245.5,291.5C 244.127,291.657 242.793,291.49 241.5,291C 242.71,289.961 243.71,288.794 244.5,287.5 Z"/></g>
<g><path style="opacity:1" fill="#424f52" d="M 270.5,288.5 C 269.791,289.404 268.791,289.737 267.5,289.5C 267.205,291.735 267.539,293.735 268.5,295.5C 268.263,296.791 268.596,297.791 269.5,298.5C 269.5,299.833 269.5,301.167 269.5,302.5C 267.044,298.274 266.044,293.607 266.5,288.5C 267.833,288.5 269.167,288.5 270.5,288.5 Z"/></g>
<g><path style="opacity:1" fill="#99b951" d="M 307.5,303.5 C 301.04,303.766 294.707,304.766 288.5,306.5C 287.264,305.754 285.93,305.421 284.5,305.5C 284.5,307.167 284.5,308.833 284.5,310.5C 287.565,310.759 290.065,309.759 292,307.5C 293.401,309.192 295.234,309.859 297.5,309.5C 297.833,310.167 298.167,310.833 298.5,311.5C 298.5,312.833 298.5,314.167 298.5,315.5C 299.952,316.302 301.618,316.802 303.5,317C 301.651,319.536 299.984,322.203 298.5,325C 300.368,325.384 301.701,326.884 302.5,329.5C 292.902,331.353 283.236,332.686 273.5,333.5C 273.5,332.5 273.5,331.5 273.5,330.5C 273.283,326.295 272.617,322.295 271.5,318.5C 271.5,318.167 271.5,317.833 271.5,317.5C 271.638,312.586 270.972,307.919 269.5,303.5C 269.5,303.167 269.5,302.833 269.5,302.5C 269.5,301.167 269.5,299.833 269.5,298.5C 269.881,297.069 270.881,296.236 272.5,296C 281.458,294.507 290.458,293.84 299.5,294C 302.781,295.294 305.448,297.294 307.5,300C 306.829,300.986 306.829,302.153 307.5,303.5 Z"/></g>
<g><path style="opacity:1" fill="#a1c261" d="M 326.5,286.5 C 330.167,286.5 333.833,286.5 337.5,286.5C 338.581,289.627 339.247,292.96 339.5,296.5C 339.444,301.731 340.111,306.731 341.5,311.5C 341.5,312.5 341.5,313.5 341.5,314.5C 341.909,317.855 341.242,320.855 339.5,323.5C 329.005,324.715 318.672,326.381 308.5,328.5C 306.435,328.517 304.435,328.85 302.5,329.5C 301.701,326.884 300.368,325.384 298.5,325C 299.984,322.203 301.651,319.536 303.5,317C 301.618,316.802 299.952,316.302 298.5,315.5C 302.266,315.185 305.766,314.185 309,312.5C 310.333,313.167 311.333,314.167 312,315.5C 312.494,313.866 312.66,312.199 312.5,310.5C 307.859,311.127 303.193,311.46 298.5,311.5C 298.167,310.833 297.833,310.167 297.5,309.5C 305.835,307.966 314.168,306.3 322.5,304.5C 322.5,303.5 322.5,302.5 322.5,301.5C 317.362,301.434 312.362,302.1 307.5,303.5C 306.829,302.153 306.829,300.986 307.5,300C 305.448,297.294 302.781,295.294 299.5,294C 290.458,293.84 281.458,294.507 272.5,296C 270.881,296.236 269.881,297.069 269.5,298.5C 268.596,297.791 268.263,296.791 268.5,295.5C 271.655,295.01 274.655,294.344 277.5,293.5C 277.833,293.5 278.167,293.5 278.5,293.5C 285.869,292.76 293.202,291.76 300.5,290.5C 309.196,289.33 317.863,287.996 326.5,286.5 Z"/></g>
<g><path style="opacity:1" fill="#708654" d="M 339.5,296.5 C 340.889,301.269 341.556,306.269 341.5,311.5C 340.111,306.731 339.444,301.731 339.5,296.5 Z"/></g>
<g><path style="opacity:1" fill="#c4d29f" d="M 297.5,309.5 C 295.234,309.859 293.401,309.192 292,307.5C 290.065,309.759 287.565,310.759 284.5,310.5C 284.5,308.833 284.5,307.167 284.5,305.5C 285.93,305.421 287.264,305.754 288.5,306.5C 294.707,304.766 301.04,303.766 307.5,303.5C 312.362,302.1 317.362,301.434 322.5,301.5C 322.5,302.5 322.5,303.5 322.5,304.5C 314.168,306.3 305.835,307.966 297.5,309.5 Z"/></g>
<g><path style="opacity:1" fill="#dce5ed" d="M 399.5,230.5 C 400.473,232.948 400.806,235.615 400.5,238.5C 403.69,238.441 406.857,238.107 410,237.5C 413.175,237.613 416.008,238.613 418.5,240.5C 419.332,248.479 419.832,256.479 420,264.5C 420.5,333.499 420.667,402.499 420.5,471.5C 398.092,463.394 375.426,455.894 352.5,449C 323.653,443.192 294.986,438.025 266.5,433.5C 275.78,434.447 285.114,434.78 294.5,434.5C 328.263,436.51 361.93,439.51 395.5,443.5C 395.5,432.5 395.5,421.5 395.5,410.5C 396.833,410.5 398.167,410.5 399.5,410.5C 399.5,350.5 399.5,290.5 399.5,230.5 Z"/></g>
<g><path style="opacity:1" fill="#e4e9d9" d="M 247.5,294.5 C 248.449,298.657 249.116,302.99 249.5,307.5C 249.423,311.215 249.756,314.881 250.5,318.5C 248.933,317.319 248.099,315.653 248,313.5C 247.5,307.175 247.334,300.842 247.5,294.5 Z"/></g>
<g><path style="opacity:1" fill="#49584c" d="M 269.5,303.5 C 270.972,307.919 271.638,312.586 271.5,317.5C 269.896,313.1 269.229,308.434 269.5,303.5 Z"/></g>
<g><path style="opacity:1" fill="#cce09f" d="M 244.5,287.5 C 243.71,288.794 242.71,289.961 241.5,291C 242.793,291.49 244.127,291.657 245.5,291.5C 247.183,313.428 246.183,335.094 242.5,356.5C 243.499,341.518 244.165,326.518 244.5,311.5C 244.5,304.991 244.166,298.658 243.5,292.5C 242.5,292.5 241.5,292.5 240.5,292.5C 240.369,289.633 241.703,287.967 244.5,287.5 Z"/></g>
<g><path style="opacity:1" fill="#c4d29c" d="M 298.5,315.5 C 298.5,314.167 298.5,312.833 298.5,311.5C 303.193,311.46 307.859,311.127 312.5,310.5C 312.66,312.199 312.494,313.866 312,315.5C 311.333,314.167 310.333,313.167 309,312.5C 305.766,314.185 302.266,315.185 298.5,315.5 Z"/></g>
<g><path style="opacity:1" fill="#a5acac" d="M 249.5,307.5 C 251.031,312.25 251.698,317.25 251.5,322.5C 250.566,321.432 250.232,320.099 250.5,318.5C 249.756,314.881 249.423,311.215 249.5,307.5 Z"/></g>
<g><path style="opacity:1" fill="#90a76d" d="M 341.5,314.5 C 342.785,317.589 343.451,320.922 343.5,324.5C 343.167,324.5 342.833,324.5 342.5,324.5C 341.791,323.596 340.791,323.263 339.5,323.5C 341.242,320.855 341.909,317.855 341.5,314.5 Z"/></g>
<g><path style="opacity:1" fill="#f8fad3" d="M 339.5,323.5 C 340.791,323.263 341.791,323.596 342.5,324.5C 342.83,330.868 342.496,337.202 341.5,343.5C 340.833,342.5 340.167,341.5 339.5,340.5C 338.889,342.307 339.556,343.973 341.5,345.5C 340.131,347.764 339.131,350.097 338.5,352.5C 338.5,351.167 338.5,349.833 338.5,348.5C 329.822,349.835 321.156,351.169 312.5,352.5C 310.952,352.179 310.285,351.179 310.5,349.5C 319.475,347.705 328.475,346.038 337.5,344.5C 337.5,343.167 337.5,341.833 337.5,340.5C 327.877,342.091 318.211,343.424 308.5,344.5C 306.517,344.843 305.183,344.176 304.5,342.5C 315.368,339.966 326.368,337.966 337.5,336.5C 337.5,335.167 337.5,333.833 337.5,332.5C 328.066,333.187 318.733,334.52 309.5,336.5C 307.801,336.66 306.134,336.494 304.5,336C 305.167,335.667 305.833,335.333 306.5,335C 303.833,333.667 303.833,332.333 306.5,331C 306.167,330.667 305.833,330.333 305.5,330C 306.737,329.768 307.737,329.268 308.5,328.5C 318.672,326.381 329.005,324.715 339.5,323.5 Z"/></g>
<g><path style="opacity:1" fill="#4f624d" d="M 271.5,318.5 C 272.617,322.295 273.283,326.295 273.5,330.5C 271.864,326.79 271.198,322.79 271.5,318.5 Z"/></g>
<g><path style="opacity:1" fill="#738b63" d="M 251.5,324.5 C 252.525,327.974 253.192,331.64 253.5,335.5C 251.96,333.162 251.294,330.495 251.5,327.5C 251.5,326.5 251.5,325.5 251.5,324.5 Z"/></g>
<g><path style="opacity:1" fill="#96bd4e" d="M 240.5,292.5 C 241.5,292.5 242.5,292.5 243.5,292.5C 243.666,302.839 243.5,313.172 243,323.5C 240.499,345.826 238.332,368.159 236.5,390.5C 235.564,394.735 235.231,399.069 235.5,403.5C 234.5,403.5 233.5,403.5 232.5,403.5C 231.343,401.785 230.676,399.785 230.5,397.5C 234.813,370.974 237.813,344.308 239.5,317.5C 239.253,316.287 238.586,315.62 237.5,315.5C 238.427,307.825 239.427,300.159 240.5,292.5 Z"/></g>
<g><path style="opacity:1" fill="#b6d374" d="M 304.5,342.5 C 297.405,343.357 290.405,344.691 283.5,346.5C 283.5,344.833 283.5,343.167 283.5,341.5C 292.405,340.434 301.072,338.767 309.5,336.5C 318.733,334.52 328.066,333.187 337.5,332.5C 337.5,333.833 337.5,335.167 337.5,336.5C 326.368,337.966 315.368,339.966 304.5,342.5 Z"/></g>
<g><path style="opacity:1" fill="#f8f9d8" d="M 342.5,324.5 C 342.833,324.5 343.167,324.5 343.5,324.5C 344.494,330.796 345.16,337.13 345.5,343.5C 345.333,349.503 346.333,355.17 348.5,360.5C 348.5,361.5 348.5,362.5 348.5,363.5C 348.229,368.434 348.896,373.1 350.5,377.5C 351.299,380.43 351.632,383.43 351.5,386.5C 328.474,390.095 305.474,393.761 282.5,397.5C 281.833,392.833 281.167,388.167 280.5,383.5C 284.833,384.458 285.5,386.458 282.5,389.5C 282.997,391.818 283.33,394.152 283.5,396.5C 287.41,396.737 291.077,395.904 294.5,394C 292.616,393.784 290.949,393.117 289.5,392C 292.586,391.088 295.586,389.921 298.5,388.5C 299.167,388.833 299.833,389.167 300.5,389.5C 301.829,386.454 303.829,384.121 306.5,382.5C 316.406,380.251 326.406,378.585 336.5,377.5C 336.5,376.167 336.5,374.833 336.5,373.5C 322.126,375.173 307.792,377.173 293.5,379.5C 292.127,379.657 290.793,379.49 289.5,379C 290.056,378.617 290.389,378.117 290.5,377.5C 306.135,374.588 321.802,371.921 337.5,369.5C 337.5,368.167 337.5,366.833 337.5,365.5C 323.681,366.569 310.014,368.569 296.5,371.5C 294.801,371.66 293.134,371.494 291.5,371C 292.056,370.617 292.389,370.117 292.5,369.5C 307.797,366.505 323.13,363.505 338.5,360.5C 338.5,359.5 338.5,358.5 338.5,357.5C 329.875,358.462 321.208,359.462 312.5,360.5C 311.127,360.657 309.793,360.49 308.5,360C 310.066,359.392 311.4,358.558 312.5,357.5C 321.255,355.636 329.922,353.97 338.5,352.5C 339.131,350.097 340.131,347.764 341.5,345.5C 339.556,343.973 338.889,342.307 339.5,340.5C 340.167,341.5 340.833,342.5 341.5,343.5C 342.496,337.202 342.83,330.868 342.5,324.5 Z"/></g>
<g><path style="opacity:1" fill="#e7f1cb" d="M 245.5,291.5 C 246.167,292.5 246.833,293.5 247.5,294.5C 247.334,300.842 247.5,307.175 248,313.5C 248.099,315.653 248.933,317.319 250.5,318.5C 250.232,320.099 250.566,321.432 251.5,322.5C 251.5,323.167 251.5,323.833 251.5,324.5C 251.5,325.5 251.5,326.5 251.5,327.5C 249.45,338.942 248.117,350.609 247.5,362.5C 246.463,363.93 245.796,365.597 245.5,367.5C 244.351,367.791 243.684,368.624 243.5,370C 241.868,378.328 240.201,386.494 238.5,394.5C 239.774,381.813 241.108,369.146 242.5,356.5C 246.183,335.094 247.183,313.428 245.5,291.5 Z"/></g>
<g><path style="opacity:1" fill="#b5d472" d="M 310.5,349.5 C 301.722,350.74 293.055,352.407 284.5,354.5C 284.141,352.234 284.808,350.401 286.5,349C 293.957,347.594 301.29,346.094 308.5,344.5C 318.211,343.424 327.877,342.091 337.5,340.5C 337.5,341.833 337.5,343.167 337.5,344.5C 328.475,346.038 319.475,347.705 310.5,349.5 Z"/></g>
<g><path style="opacity:1" fill="#f6f9c7" d="M 308.5,328.5 C 307.737,329.268 306.737,329.768 305.5,330C 305.833,330.333 306.167,330.667 306.5,331C 303.833,332.333 303.833,333.667 306.5,335C 305.833,335.333 305.167,335.667 304.5,336C 306.134,336.494 307.801,336.66 309.5,336.5C 301.072,338.767 292.405,340.434 283.5,341.5C 283.5,343.167 283.5,344.833 283.5,346.5C 290.405,344.691 297.405,343.357 304.5,342.5C 305.183,344.176 306.517,344.843 308.5,344.5C 301.29,346.094 293.957,347.594 286.5,349C 284.808,350.401 284.141,352.234 284.5,354.5C 293.055,352.407 301.722,350.74 310.5,349.5C 310.285,351.179 310.952,352.179 312.5,352.5C 304.414,354.589 296.081,356.089 287.5,357C 286.62,358.356 286.286,359.856 286.5,361.5C 295.272,360.807 303.938,359.473 312.5,357.5C 311.4,358.558 310.066,359.392 308.5,360C 309.793,360.49 311.127,360.657 312.5,360.5C 304.284,362.091 295.951,363.758 287.5,365.5C 287.5,366.833 287.5,368.167 287.5,369.5C 289.167,369.5 290.833,369.5 292.5,369.5C 292.389,370.117 292.056,370.617 291.5,371C 293.134,371.494 294.801,371.66 296.5,371.5C 294.316,372.266 291.982,372.933 289.5,373.5C 289.167,374.167 288.833,374.833 288.5,375.5C 288.747,376.713 289.414,377.38 290.5,377.5C 290.389,378.117 290.056,378.617 289.5,379C 290.793,379.49 292.127,379.657 293.5,379.5C 292.432,380.434 291.099,380.768 289.5,380.5C 289.5,381.833 289.5,383.167 289.5,384.5C 295.199,384.093 300.866,383.427 306.5,382.5C 303.829,384.121 301.829,386.454 300.5,389.5C 299.833,389.167 299.167,388.833 298.5,388.5C 295.586,389.921 292.586,391.088 289.5,392C 290.949,393.117 292.616,393.784 294.5,394C 291.077,395.904 287.41,396.737 283.5,396.5C 283.33,394.152 282.997,391.818 282.5,389.5C 285.5,386.458 284.833,384.458 280.5,383.5C 277.942,366.827 275.609,350.16 273.5,333.5C 283.236,332.686 292.902,331.353 302.5,329.5C 304.435,328.85 306.435,328.517 308.5,328.5 Z"/></g>
<g><path style="opacity:1" fill="#829d49" d="M 343.5,265.5 C 345.117,266.038 346.784,266.371 348.5,266.5C 348.281,267.675 348.614,268.675 349.5,269.5C 353.027,270.739 355.527,273.073 357,276.5C 363.647,303.575 370.48,330.575 377.5,357.5C 377.5,374.167 377.5,390.833 377.5,407.5C 377.5,408.167 377.5,408.833 377.5,409.5C 339.397,409.868 301.397,411.868 263.5,415.5C 263.5,414.5 263.5,413.5 263.5,412.5C 265.415,412.784 267.081,412.451 268.5,411.5C 271.482,411.037 274.482,410.704 277.5,410.5C 283.245,410.946 288.579,409.946 293.5,407.5C 306.852,405.63 320.186,403.63 333.5,401.5C 340.185,401.872 346.519,400.872 352.5,398.5C 356.964,398.634 360.464,396.968 363,393.5C 362.876,384.124 362.043,374.79 360.5,365.5C 360.283,361.295 359.617,357.295 358.5,353.5C 354.989,325.456 351.156,297.456 347,269.5C 345.898,268.051 344.731,266.718 343.5,265.5 Z"/></g>
<g><path style="opacity:1" fill="#7b9554" d="M 253.5,336.5 C 255.375,346.635 256.708,356.968 257.5,367.5C 254.759,357.475 253.425,347.141 253.5,336.5 Z"/></g>
<g><path style="opacity:1" fill="#a6a7a2" d="M 345.5,343.5 C 346.951,348.959 347.951,354.626 348.5,360.5C 346.333,355.17 345.333,349.503 345.5,343.5 Z"/></g>
<g><path style="opacity:1" fill="#b3d66c" d="M 338.5,352.5 C 329.922,353.97 321.255,355.636 312.5,357.5C 303.938,359.473 295.272,360.807 286.5,361.5C 286.286,359.856 286.62,358.356 287.5,357C 296.081,356.089 304.414,354.589 312.5,352.5C 321.156,351.169 329.822,349.835 338.5,348.5C 338.5,349.833 338.5,351.167 338.5,352.5 Z"/></g>
<g><path style="opacity:1" fill="#84ae42" d="M 237.5,315.5 C 238.586,315.62 239.253,316.287 239.5,317.5C 237.813,344.308 234.813,370.974 230.5,397.5C 230.676,399.785 231.343,401.785 232.5,403.5C 230.833,403.5 229.167,403.5 227.5,403.5C 227.5,401.833 227.5,400.167 227.5,398.5C 230.811,370.968 234.144,343.301 237.5,315.5 Z"/></g>
<g><path style="opacity:1" fill="#bad482" d="M 243.5,292.5 C 244.166,298.658 244.5,304.991 244.5,311.5C 244.165,326.518 243.499,341.518 242.5,356.5C 240.313,367.84 238.313,379.173 236.5,390.5C 238.332,368.159 240.499,345.826 243,323.5C 243.5,313.172 243.666,302.839 243.5,292.5 Z"/></g>
<g><path style="opacity:1" fill="#91b552" d="M 251.5,327.5 C 251.294,330.495 251.96,333.162 253.5,335.5C 253.5,335.833 253.5,336.167 253.5,336.5C 253.425,347.141 254.759,357.475 257.5,367.5C 260.054,377.557 261.72,387.891 262.5,398.5C 261.442,397.4 260.608,396.066 260,394.5C 259.667,395.5 259.333,396.5 259,397.5C 258.401,392.98 258.568,388.48 259.5,384C 259.054,380.825 258.554,377.658 258,374.5C 256.467,374.944 254.967,375.277 253.5,375.5C 251.932,373.8 250.099,372.466 248,371.5C 247.502,368.518 247.335,365.518 247.5,362.5C 248.117,350.609 249.45,338.942 251.5,327.5 Z"/></g>
<g><path style="opacity:1" fill="#93a87e" d="M 398.5,229.5 C 399.167,229.5 399.5,229.833 399.5,230.5C 399.5,290.5 399.5,350.5 399.5,410.5C 398.167,410.5 396.833,410.5 395.5,410.5C 395.5,410.167 395.5,409.833 395.5,409.5C 396.5,409.5 397.5,409.5 398.5,409.5C 398.5,349.5 398.5,289.5 398.5,229.5 Z"/></g>
<g><path style="opacity:1" fill="#3e5048" d="M 358.5,353.5 C 359.617,357.295 360.283,361.295 360.5,365.5C 358.864,361.79 358.198,357.79 358.5,353.5 Z"/></g>
<g><path style="opacity:1" fill="#b1d56d" d="M 292.5,369.5 C 290.833,369.5 289.167,369.5 287.5,369.5C 287.5,368.167 287.5,366.833 287.5,365.5C 295.951,363.758 304.284,362.091 312.5,360.5C 321.208,359.462 329.875,358.462 338.5,357.5C 338.5,358.5 338.5,359.5 338.5,360.5C 323.13,363.505 307.797,366.505 292.5,369.5 Z"/></g>
<g><path style="opacity:1" fill="#b3d56d" d="M 290.5,377.5 C 289.414,377.38 288.747,376.713 288.5,375.5C 288.833,374.833 289.167,374.167 289.5,373.5C 291.982,372.933 294.316,372.266 296.5,371.5C 310.014,368.569 323.681,366.569 337.5,365.5C 337.5,366.833 337.5,368.167 337.5,369.5C 321.802,371.921 306.135,374.588 290.5,377.5 Z"/></g>
<g><path style="opacity:1" fill="#aed36f" d="M 306.5,382.5 C 300.866,383.427 295.199,384.093 289.5,384.5C 289.5,383.167 289.5,381.833 289.5,380.5C 291.099,380.768 292.432,380.434 293.5,379.5C 307.792,377.173 322.126,375.173 336.5,373.5C 336.5,374.833 336.5,376.167 336.5,377.5C 326.406,378.585 316.406,380.251 306.5,382.5 Z"/></g>
<g><path style="opacity:1" fill="#a9ada6" d="M 348.5,363.5 C 349.972,367.919 350.638,372.586 350.5,377.5C 348.896,373.1 348.229,368.434 348.5,363.5 Z"/></g>
<g><path style="opacity:1" fill="#d5e4a7" d="M 242.5,356.5 C 241.108,369.146 239.774,381.813 238.5,394.5C 238.296,397.518 237.963,400.518 237.5,403.5C 236.833,403.5 236.167,403.5 235.5,403.5C 235.231,399.069 235.564,394.735 236.5,390.5C 238.313,379.173 240.313,367.84 242.5,356.5 Z"/></g>
<g><path style="opacity:1" fill="#98c05b" d="M 247.5,362.5 C 247.335,365.518 247.502,368.518 248,371.5C 250.099,372.466 251.932,373.8 253.5,375.5C 254.967,375.277 256.467,374.944 258,374.5C 258.554,377.658 259.054,380.825 259.5,384C 258.568,388.48 258.401,392.98 259,397.5C 259.333,396.5 259.667,395.5 260,394.5C 260.608,396.066 261.442,397.4 262.5,398.5C 262.5,399.167 262.5,399.833 262.5,400.5C 259.455,403.547 256.122,406.213 252.5,408.5C 250.173,408.247 248.173,408.914 246.5,410.5C 245.643,409.264 244.977,407.931 244.5,406.5C 243.675,405.614 242.675,405.281 241.5,405.5C 242.577,399.218 243.243,392.884 243.5,386.5C 244.249,380.176 244.915,373.843 245.5,367.5C 245.796,365.597 246.463,363.93 247.5,362.5 Z"/></g>
<g><path style="opacity:1" fill="#f4f8e8" d="M 245.5,367.5 C 244.915,373.843 244.249,380.176 243.5,386.5C 242.129,391.272 241.296,396.272 241,401.5C 240.764,403.119 239.931,404.119 238.5,404.5C 237.833,404.5 237.5,404.167 237.5,403.5C 237.963,400.518 238.296,397.518 238.5,394.5C 240.201,386.494 241.868,378.328 243.5,370C 243.684,368.624 244.351,367.791 245.5,367.5 Z"/></g>
<g><path style="opacity:1" fill="#677d4a" d="M 352.5,398.5 C 346.519,400.872 340.185,401.872 333.5,401.5C 339.659,400.237 345.992,399.237 352.5,398.5 Z"/></g>
<g><path style="opacity:1" fill="#a2c571" d="M 243.5,386.5 C 243.243,392.884 242.577,399.218 241.5,405.5C 242.675,405.281 243.675,405.614 244.5,406.5C 244.977,407.931 245.643,409.264 246.5,410.5C 248.173,408.914 250.173,408.247 252.5,408.5C 247.5,412.5 242.5,416.5 237.5,420.5C 235.704,421.793 234.037,423.293 232.5,425C 231.552,425.483 230.552,425.649 229.5,425.5C 229.5,424.5 229.5,423.5 229.5,422.5C 230.492,422.672 231.158,422.338 231.5,421.5C 233.595,416.823 235.928,412.156 238.5,407.5C 238.5,406.5 238.5,405.5 238.5,404.5C 239.931,404.119 240.764,403.119 241,401.5C 241.296,396.272 242.129,391.272 243.5,386.5 Z"/></g>
<g><path style="opacity:1" fill="#e4f6b1" d="M 262.5,400.5 C 263.219,402.764 263.552,405.097 263.5,407.5C 263.5,409.167 263.5,410.833 263.5,412.5C 263.5,413.5 263.5,414.5 263.5,415.5C 301.397,411.868 339.397,409.868 377.5,409.5C 376.258,411.25 374.758,412.917 373,414.5C 372.667,413.5 372.333,412.5 372,411.5C 371.781,412.938 371.281,414.271 370.5,415.5C 366.634,412.683 362.634,412.183 358.5,414C 358.957,414.414 359.291,414.914 359.5,415.5C 354.172,417.162 349.839,420.162 346.5,424.5C 345.808,423.975 345.308,423.308 345,422.5C 342.853,423.113 340.686,423.779 338.5,424.5C 337.5,426.167 336.167,427.5 334.5,428.5C 332.401,426.48 330.067,426.146 327.5,427.5C 326.674,428.451 326.508,429.451 327,430.5C 327.333,430.167 327.667,429.833 328,429.5C 329.509,430.09 331.009,430.756 332.5,431.5C 330.293,432.635 327.96,433.301 325.5,433.5C 325.617,431.516 324.95,429.85 323.5,428.5C 323.193,429.887 323.193,431.554 323.5,433.5C 322.448,433.351 321.448,433.517 320.5,434C 321.833,434.333 323.167,434.667 324.5,435C 322.167,435.667 319.833,435.667 317.5,435C 318.308,434.692 318.975,434.192 319.5,433.5C 317.876,431.559 315.876,430.226 313.5,429.5C 308.218,432.993 303.218,432.993 298.5,429.5C 295.167,432.167 291.833,432.167 288.5,429.5C 287.522,429.977 286.689,430.643 286,431.5C 284.868,429.478 283.201,429.145 281,430.5C 278.815,430.079 276.649,429.579 274.5,429C 276.14,426.224 275.473,424.224 272.5,423C 268.407,423.215 264.074,423.048 259.5,422.5C 259.719,423.675 259.386,424.675 258.5,425.5C 257.833,424.167 257.167,422.833 256.5,421.5C 255.391,422.59 254.391,422.59 253.5,421.5C 254.506,420.604 254.506,419.938 253.5,419.5C 252.197,422.379 250.197,423.045 247.5,421.5C 244.492,422.065 241.659,423.065 239,424.5C 238.25,423.874 237.416,423.374 236.5,423C 237.252,422.329 237.586,421.496 237.5,420.5C 242.5,416.5 247.5,412.5 252.5,408.5C 256.122,406.213 259.455,403.547 262.5,400.5 Z"/></g>
<g><path style="opacity:1" fill="#515756" d="M 227.5,403.5 C 229.167,403.5 230.833,403.5 232.5,403.5C 233.5,403.5 234.5,403.5 235.5,403.5C 236.167,403.5 236.833,403.5 237.5,403.5C 237.5,404.167 237.833,404.5 238.5,404.5C 238.5,405.5 238.5,406.5 238.5,407.5C 236.833,407.5 235.167,407.5 233.5,407.5C 233.552,409.903 233.219,412.236 232.5,414.5C 231.532,412.393 231.198,410.059 231.5,407.5C 230.5,407.5 229.5,407.5 228.5,407.5C 227.766,406.292 227.433,404.959 227.5,403.5 Z"/></g>
<g><path style="opacity:1" fill="#e7f8b8" d="M 196.5,398.5 C 206.833,398.5 217.167,398.5 227.5,398.5C 227.5,400.167 227.5,401.833 227.5,403.5C 227.433,404.959 227.766,406.292 228.5,407.5C 228.916,412.493 229.249,417.493 229.5,422.5C 229.5,423.5 229.5,424.5 229.5,425.5C 230.552,425.649 231.552,425.483 232.5,425C 234.037,423.293 235.704,421.793 237.5,420.5C 237.586,421.496 237.252,422.329 236.5,423C 237.416,423.374 238.25,423.874 239,424.5C 241.659,423.065 244.492,422.065 247.5,421.5C 250.197,423.045 252.197,422.379 253.5,419.5C 254.506,419.938 254.506,420.604 253.5,421.5C 254.391,422.59 255.391,422.59 256.5,421.5C 257.167,422.833 257.833,424.167 258.5,425.5C 259.386,424.675 259.719,423.675 259.5,422.5C 264.074,423.048 268.407,423.215 272.5,423C 275.473,424.224 276.14,426.224 274.5,429C 276.649,429.579 278.815,430.079 281,430.5C 283.201,429.145 284.868,429.478 286,431.5C 286.689,430.643 287.522,429.977 288.5,429.5C 291.833,432.167 295.167,432.167 298.5,429.5C 303.218,432.993 308.218,432.993 313.5,429.5C 315.876,430.226 317.876,431.559 319.5,433.5C 318.975,434.192 318.308,434.692 317.5,435C 319.833,435.667 322.167,435.667 324.5,435C 323.167,434.667 321.833,434.333 320.5,434C 321.448,433.517 322.448,433.351 323.5,433.5C 323.193,431.554 323.193,429.887 323.5,428.5C 324.95,429.85 325.617,431.516 325.5,433.5C 327.96,433.301 330.293,432.635 332.5,431.5C 331.009,430.756 329.509,430.09 328,429.5C 327.667,429.833 327.333,430.167 327,430.5C 326.508,429.451 326.674,428.451 327.5,427.5C 330.067,426.146 332.401,426.48 334.5,428.5C 336.167,427.5 337.5,426.167 338.5,424.5C 340.686,423.779 342.853,423.113 345,422.5C 345.308,423.308 345.808,423.975 346.5,424.5C 349.839,420.162 354.172,417.162 359.5,415.5C 359.291,414.914 358.957,414.414 358.5,414C 362.634,412.183 366.634,412.683 370.5,415.5C 371.281,414.271 371.781,412.938 372,411.5C 372.333,412.5 372.667,413.5 373,414.5C 374.758,412.917 376.258,411.25 377.5,409.5C 377.5,408.833 377.5,408.167 377.5,407.5C 378.167,407.5 378.833,407.5 379.5,407.5C 384.675,409.085 390.009,409.752 395.5,409.5C 395.5,409.833 395.5,410.167 395.5,410.5C 395.5,421.5 395.5,432.5 395.5,443.5C 361.93,439.51 328.263,436.51 294.5,434.5C 274.691,432.863 254.691,432.196 234.5,432.5C 221.833,432.5 209.167,432.5 196.5,432.5C 196.5,421.167 196.5,409.833 196.5,398.5 Z"/></g>
<g><path style="opacity:1" fill="#57665b" d="M 263.5,407.5 C 264.434,408.568 264.768,409.901 264.5,411.5C 265.833,411.5 267.167,411.5 268.5,411.5C 267.081,412.451 265.415,412.784 263.5,412.5C 263.5,410.833 263.5,409.167 263.5,407.5 Z"/></g>
<g><path style="opacity:1" fill="#677e4c" d="M 293.5,407.5 C 288.579,409.946 283.245,410.946 277.5,410.5C 277.5,410.167 277.5,409.833 277.5,409.5C 282.847,408.927 288.18,408.26 293.5,407.5 Z"/></g>
<g><path style="opacity:1" fill="#b0bfa9" d="M 238.5,407.5 C 235.928,412.156 233.595,416.823 231.5,421.5C 231.993,419.194 232.326,416.861 232.5,414.5C 233.219,412.236 233.552,409.903 233.5,407.5C 235.167,407.5 236.833,407.5 238.5,407.5 Z"/></g>
<g><path style="opacity:1" fill="#757c79" d="M 228.5,407.5 C 229.5,407.5 230.5,407.5 231.5,407.5C 231.198,410.059 231.532,412.393 232.5,414.5C 232.326,416.861 231.993,419.194 231.5,421.5C 231.158,422.338 230.492,422.672 229.5,422.5C 229.249,417.493 228.916,412.493 228.5,407.5 Z"/></g>
<g><path style="opacity:1" fill="#ecf5d8" d="M 195.5,259.5 C 195.833,259.5 196.167,259.5 196.5,259.5C 196.5,305.833 196.5,352.167 196.5,398.5C 196.5,409.833 196.5,421.167 196.5,432.5C 209.167,432.5 221.833,432.5 234.5,432.5C 234.5,432.833 234.5,433.167 234.5,433.5C 221.5,433.5 208.5,433.5 195.5,433.5C 195.5,375.5 195.5,317.5 195.5,259.5 Z"/></g>
<g><path style="opacity:1" fill="#e6f3c9" d="M 234.5,433.5 C 234.5,433.167 234.5,432.833 234.5,432.5C 254.691,432.196 274.691,432.863 294.5,434.5C 285.114,434.78 275.78,434.447 266.5,433.5C 255.833,433.5 245.167,433.5 234.5,433.5 Z"/></g>
</svg>
